Gallery: 
 
http://imagedomino.com/?g=893953

Studio
Zero Tolerance
Starring
AnnMarie Rios, Charley Chase, Sophia Santi, Monique Alexander, Victoria Lawson, Dana DeArmond, Zoe Voss, Jessie Andrews, Adriana Sephora
Genre
Lesbian, Masturbation

What happens when two super-hot roommates discover they both like to eat pussy? You'll find out in this second round of girl-on-girl action where every sexy slut gets sucked, licked, fingered and toy-fucked until she cums all over her live-in lover! Hot lesbian XXX sex is always just down the hall in this tribute to horny housemates who love to fuck! It's not just the laundry that's dirty here, it's every muff-diving, tit-squeezing lesbo whore! They'll bring out the bisexual in any roommate and show them how to get off without a cock in sight!

Duration                         : 1h 0mn
Bit rate                         : 1 496 Kbps
Width                            : 624 pixels
Height                           : 352 pixels
Display aspect ratio             : 16:9
Frame rate                       : 23.976 fps
Color space                      : YUV
Chroma subsampling               : 4:2:0
Bit depth                        : 8 bits
Scan type                        : Progressive
Compression mode                 : Lossy
Bits/(Pixel*Frame)               : 0.284
Stream size                      : 646 MiB (93%)

Duration                         : 58mn 2s
Bit rate                         : 1 561 Kbps
Width                            : 624 pixels
Height                           : 352 pixels
Display aspect ratio             : 16:9
Frame rate                       : 23.976 fps
Color space                      : YUV
Chroma subsampling               : 4:2:0
Bit depth                        : 8 bits
Scan type                        : Progressive
Compression mode                 : Lossy
Bits/(Pixel*Frame)               : 0.296
Stream size                      : 648 MiB (93%)